<?xml version="1.0" encoding="utf-8"?>
<!-- Generator: Adobe Illustrator 22.1.0, SVG Export Plug-In . SVG Version: 6.00 Build 0)  -->
<svg version="1.1" id="Слой_1" xmlns="http://www.w3.org/2000/svg" xmlns:xlink="http://www.w3.org/1999/xlink" x="0px" y="0px"
	 viewBox="0 0 30 30" style="enable-background:new 0 0 30 30;" xml:space="preserve">
<style type="text/css">
	.st0{fill:#41639B;}
	.st1{fill:#FFFFFF;}
</style>
<g>
	<path class="st0" d="M2.3,0h24.9v19.6l0,0v0C27.3,24.4,21.7,30,14.8,30S2.3,24.7,2.3,19.6v0l0,0L2.3,0L2.3,0z"/>
	<path class="st1" d="M6,10.5c0.3,0.1,0.5,0.2,0.7,0.4L8.6,12L9,13.5h0.2c0.2-2.6,2.4-4.7,5-4.7l-0.1-0.3l-2.6,0l-0.5-1.4
		c1.1,0.1,3.4,1.6,2.6-0.3h-2.8l-0.5-1.3c1.4,0,3-0.2,4.4,0l0.2,0c1.5,0.3,2.6,1.6,2.6,3.2c0,1.2-0.7,2.5-1.7,3.2V12
		c1.3-0.3,2.8-1.4,2.9-2C18.5,9.9,18,9.6,18,9.6c-0.5-0.4-0.7-1.1-0.6-1.7s0.4-0.8,0.7-1.1c0.3-0.1,0.5-0.2,0.8-0.2l6.9-1
		c0,0.2,0.1,0.5,0.1,0.7c0.2,4.2-3.1,7.8-7.3,8c-1.4,0.1-3.3-0.7-4-2.1c0,0-0.1,0-0.1,0c-0.3,0-0.5,0.1-0.7,0.1
		c-0.2,0.9,1.7,1.6,3.8,2l-0.3,0.5c0.4-0.1,0.8-0.2,1.3-0.2c2.4,0,4.3,1.9,4.3,4.3s-1.9,4.3-4.3,4.3s-4.3-1.9-4.3-4.3
		c0-0.3,0-0.5,0.1-0.7l0.1,0l2.6,0.2c-0.1,0.2-0.2,0.5-0.2,0.7c0,0.8,0.6,1.4,1.4,1.4s1.4-0.6,1.4-1.4s-0.6-1.4-1.4-1.4v0l-0.2,0
		c0,0,0,0,0,0l-2.3,0.3c-1,0.2-1.8,0.2-2.6,0.2l-3.1,4.3l-0.4-1c-2.2-0.2-1.4,0.8-1,1.2c0,0,0,0.2,0,0.3C8,23,7.3,22.4,7.3,21.5
		C7.3,20.7,8,20,8.9,20c0.6,0,1.1,0.3,1.4,0.8l1.4-4.5h-0.2l-0.9,1.2c-0.5-0.5-0.9-1.2-1.1-1.9l-2.4-3c-0.1,0.2-0.3,0.4-0.4,0.6
		L6.1,12c-1.1,0-1.7,0.2-1.2,1h0.2l0-0.4h0.7L5.7,14l0,0l0,0v0H5.3v-0.1l0-0.4C4.6,13.3,4,12.8,4,12c0-0.6,0.4-1.2,1-1.4L4.7,6.5
		L4,5.5h1.2C5.2,5,5.3,4.5,5.6,4C5.4,4,5.1,4.2,4.9,4.6C4.7,3.7,5.4,2.6,6.5,2.7c1,0.2,0.9-0.1,1.5-0.5c0,0.3,0,0.7-0.1,1
		c1.1,0.1,1-0.3,1.7-0.8c-0.1,1.1,0,2.1-1.3,2.4C7,5.1,6.1,4.4,5.3,5.5h0.1H7L6.3,6.5L6,10.5L6,10.5z M12.6,3h0.7v0.2h0.2v0.5
		c-0.1,0.1-0.2,0.2-0.2,0.4c0,0.2,0.1,0.3,0.3,0.4l0,0l0,0l0,0l0,0l0,0l0,0l0,0l0,0l0,0l0,0l0,0l0,0l0,0l0,0l0,0l0,0l0,0l0,0l0,0
		l0,0l0,0l0,0l0,0l0,0l0,0l0,0l0,0l0,0l0,0l0,0l0,0l0,0l0,0l0,0l0,0l0,0l0,0l0,0l0,0l0,0l0,0l0,0l0,0l0,0l0,0l0,0l0,0l0,0l0,0l0,0
		c0.2,0,0.4-0.2,0.4-0.4l0,0l0,0l0,0l0,0c0,0,0,0,0,0l0,0l0,0l0,0l0,0v0l0,0l0,0l0,0v0l0,0l0,0l0,0l0,0l0,0c0-0.1,0-0.1-0.1-0.1l0,0
		l0,0l0,0l0,0l0,0l0,0l0,0l0,0l0,0l0,0l0,0l0,0l0,0l0,0c0,0,0,0,0,0l0,0l0,0l0,0l0,0l0,0l0,0l0,0c0,0,0,0,0,0l0,0h0l0,0l0,0l0,0l0,0
		V3.7c0-0.3,0.3-0.7,0.6-0.7l0.6,0l-0.8,2.2h-2.4L11,2.9h0.6c0.3,0,0.6,0.4,0.6,0.7v0.1C12,3.8,12,3.9,12,3.9l0,0l0,0l0,0l0,0l0,0
		l0,0l0,0l0,0l0,0l0,0l0,0l0,0l0,0l0,0l0,0c0,0,0,0,0,0l0,0c0,0,0,0,0,0l0,0v0l0,0l0,0l0,0l0,0l0,0c0,0.2,0.2,0.4,0.4,0.4l0,0l0,0
		l0,0l0,0l0,0l0,0l0,0l0,0l0,0l0,0l0,0l0,0l0,0l0,0l0,0l0,0l0,0l0,0l0,0l0,0l0,0l0,0l0,0l0,0l0,0l0,0l0,0l0,0l0,0l0,0l0,0l0,0l0,0
		l0,0l0,0l0,0h0l0,0c0.2,0,0.3-0.2,0.3-0.4c0-0.2-0.1-0.3-0.2-0.4V3.2h0.2L12.6,3L12.6,3z M22.2,16.2c1.8-0.7,3.5-2,3.9-5.1
		c-0.4,1.5-1.2,2.4-2.2,2.8c-1.1,0.5-2.4,0.6-3.6,0.6C21.2,14.9,21.8,15.4,22.2,16.2L22.2,16.2z"/>
	<path class="st1" d="M11.1,7.3c-0.9-0.6-1.2,0.1-2,0.3C8.2,7.7,8,7.1,7.6,6.5C8.2,6.6,8.2,6.9,9,6.4C9.8,5.9,10.8,6.5,11.1,7.3
		L11.1,7.3z"/>
	<path class="st1" d="M11.2,26.7h0.4v-1l0-0.2l-0.1,0.1l-0.2,0.2l-0.1-0.2l0.6-0.5h0.2v1.6h0.4V27h-1.1L11.2,26.7L11.2,26.7z
		 M13.1,26.5c0-0.1,0-0.1,0-0.2c0,0,0-0.1,0.1-0.1c0,0,0.1-0.1,0.1-0.1c0,0,0.1-0.1,0.1-0.1c-0.1-0.1-0.1-0.1-0.2-0.2
		c0-0.1-0.1-0.2-0.1-0.3c0-0.1,0-0.1,0-0.2c0-0.1,0.1-0.1,0.1-0.1c0,0,0.1-0.1,0.2-0.1s0.1,0,0.2,0c0.1,0,0.1,0,0.2,0s0.1,0,0.2,0.1
		c0,0,0.1,0.1,0.1,0.1c0,0.1,0,0.1,0,0.2c0,0.1,0,0.2-0.1,0.3c0,0.1-0.1,0.1-0.2,0.2c0.1,0.1,0.2,0.1,0.2,0.2
		c0.1,0.1,0.1,0.2,0.1,0.3c0,0.1,0,0.1,0,0.2c0,0.1-0.1,0.1-0.1,0.2c0,0-0.1,0.1-0.2,0.1c-0.1,0-0.1,0-0.2,0c-0.1,0-0.2,0-0.2,0
		c-0.1,0-0.1-0.1-0.2-0.1c0,0-0.1-0.1-0.1-0.1C13.1,26.7,13.1,26.6,13.1,26.5L13.1,26.5z M14,26.5c0,0,0-0.1,0-0.1
		c0,0,0-0.1-0.1-0.1c0,0-0.1,0-0.1-0.1c0,0-0.1,0-0.1-0.1c-0.1,0-0.1,0.1-0.2,0.1c0,0.1,0,0.1,0,0.2c0,0.1,0,0.1,0.1,0.2
		c0,0,0.1,0.1,0.2,0.1c0.1,0,0.1,0,0.2-0.1C14,26.6,14,26.6,14,26.5L14,26.5z M13.5,25.6c0,0,0,0.1,0,0.1c0,0,0,0.1,0.1,0.1
		c0,0,0.1,0,0.1,0.1c0,0,0.1,0,0.1,0.1c0.1-0.1,0.1-0.2,0.1-0.3c0-0.1,0-0.1-0.1-0.2c0,0-0.1-0.1-0.1-0.1c-0.1,0-0.1,0-0.2,0.1
		C13.5,25.5,13.5,25.5,13.5,25.6L13.5,25.6z M15.1,26c0-0.3,0.1-0.6,0.2-0.7c0.1-0.1,0.3-0.2,0.5-0.2c0.2,0,0.4,0.1,0.5,0.2
		c0.1,0.1,0.1,0.4,0.1,0.7c0,0.3-0.1,0.6-0.2,0.7S15.9,27,15.7,27s-0.4-0.1-0.5-0.3C15.1,26.6,15.1,26.4,15.1,26L15.1,26z M15.4,26
		c0,0.2,0,0.4,0.1,0.5c0,0.1,0.1,0.2,0.2,0.2c0.1,0,0.2-0.1,0.2-0.2c0-0.1,0.1-0.3,0.1-0.5c0-0.2,0-0.4-0.1-0.5
		c0-0.1-0.1-0.2-0.2-0.2c-0.1,0-0.2,0.1-0.2,0.2C15.4,25.7,15.4,25.8,15.4,26L15.4,26z M18.4,26.5h-0.3V27h-0.3v-0.5H17v-0.2
		l0.8-1.1h0.3v1.1h0.3L18.4,26.5L18.4,26.5z M17.8,25.8l0-0.2l0,0L17.8,25.8l-0.3,0.3l-0.1,0.1l0.2,0h0.3L17.8,25.8L17.8,25.8z"/>
</g>
</svg>
