<?xml version="1.0" encoding="utf-8"?>
<!-- Generator: Adobe Illustrator 22.1.0, SVG Export Plug-In . SVG Version: 6.00 Build 0)  -->
<svg version="1.1" id="Слой_1" xmlns="http://www.w3.org/2000/svg" xmlns:xlink="http://www.w3.org/1999/xlink" x="0px" y="0px"
	 viewBox="0 0 1417.3 1417.3" style="enable-background:new 0 0 1417.3 1417.3;" xml:space="preserve">
<style type="text/css">
	.st0{fill-rule:evenodd;clip-rule:evenodd;fill:#41639B;}
	.st1{fill-rule:evenodd;clip-rule:evenodd;fill:#FFFFFF;}
	.st2{fill:#FFFFFF;}
</style>
<g>
	<path class="st0" d="M649,638.3h117.8v92.6h0l0,0.1c0.3,22.6-26.4,49-58.9,49c-32.5,0-58.9-24.9-58.9-49l0-0.1h0V638.3L649,638.3z"
		/>
	<path class="st1" d="M666.4,687.7c1.2,0.3,2.3,0.9,3.2,1.7l9,5.4l2,7.3h0.9c0.9-12.3,11.1-22,23.5-22.4l-0.5-1.2l-12.5,0.1
		l-2.5-6.6c5.2,0.6,15.9,7.5,12.5-1.6h-13l-2.3-6.3c6.6-0.1,14.1-0.9,20.6,0l0.8,0.1c7,1.4,12.2,7.4,12.2,14.9
		c0,5.5-3.2,11.7-7.8,15v0.7c6.2-1.4,13.3-6.6,13.9-9.5c-0.9-0.4-3.1-1.6-3.1-1.8c-2.4-1.7-3.5-5.2-2.9-7.8c0.6-2.6,1.8-3.9,3.5-5
		c1.2-0.6,2.3-1,3.6-1.1l32.6-4.6c0.2,1.1,0.3,2.2,0.3,3.3c0.9,20-14.5,36.9-34.4,37.8c-6.8,0.3-15.6-3.5-18.7-9.9
		c-0.2,0-0.3,0.1-0.5,0.1c-1.2,0.1-2.3,0.3-3.3,0.6c-1,4.3,7.8,7.7,18.1,9.4l-1.6,2.4c1.9-0.6,4-0.9,6.2-0.9
		c11.3,0,20.5,9.2,20.5,20.5c0,11.3-9.2,20.5-20.5,20.5c-11.3,0-20.5-9.2-20.5-20.5c0-1.2,0.1-2.3,0.3-3.4l0.7,0.1l12.4,0.8
		c-0.6,1-1,2.2-1,3.5c0,3.7,3,6.6,6.6,6.6s6.6-3,6.6-6.6c0-3.6-2.9-6.5-6.5-6.6l0-0.1l-0.8,0.1c-0.1,0-0.2,0-0.2,0l-10.7,1.3
		c-4.7,0.8-8.7,1.1-12.1,1l-14.8,20.2l-1.8-4.9c-10.4-0.9-6.8,4-4.5,5.9c0.2,0.2,0.2,1,0,1.2c-3.8-0.3-7.2-3.4-7.2-7.4
		c0-4,3.3-7.4,7.4-7.4c2.7,0,5.1,1.5,6.4,3.7l6.7-21.2h-1.1l-4.1,5.8c-2.4-2.5-4.3-5.5-5.4-8.8l-11.3-14c-0.5,1.1-1.2,2-2.1,2.8
		l-2.3-6c-5-0.2-8.1,1-5.5,4.8l1.1,0l-0.1-1.9h3.1l-0.5,6.6l0,0h0l0,0.1H663l0-0.4l-0.2-2.1c-2.9-1-5.6-3.3-5.6-6.9
		c0-2.8,1.9-5.6,4.6-6.8l-1.5-19.3l-3.5-4.5h5.9c-0.2-2.5,0.5-5.1,2-7.3c-1.3,0.2-2.5,0.9-3.7,2.9c-0.8-4.2,2.8-9.7,7.6-8.9
		c4.9,0.8,4.4-0.6,7-2.5c-0.2,1.6-0.2,3.2-0.6,4.5c5,0.5,4.8-1.3,8-3.7c-0.6,5,0,10-6.2,11.4c-5.6,1.3-9.7-2-13.5,3.5h0.7h7.3
		l-3.5,4.4L666.4,687.7L666.4,687.7z M697.8,652.6h3.2v0.8h1v2.5c-0.7,0.3-1.1,0.9-1.1,1.7c0,0.8,0.5,1.5,1.2,1.7l0,0l0,0l0,0l0,0
		l0,0l0,0h0l0,0l0,0h0l0,0l0,0l0,0h0l0,0l0,0l0,0l0,0l0,0l0,0l0,0l0,0l0,0l0,0l0,0l0,0h0l0,0l0,0l0,0l0,0l0,0l0,0l0,0l0,0l0,0l0,0
		l0,0l0,0l0,0l0,0h0l0,0h0l0,0h0l0,0l0,0h0l0,0c1,0,1.8-0.8,1.8-1.8l0,0l0,0l0,0l0,0c0,0,0,0,0-0.1l0,0l0,0l0,0l0,0c0,0,0-0.1,0-0.1
		l0,0l0,0l0,0l0-0.1l0,0l0,0l0,0l0,0l0,0c-0.1-0.3-0.2-0.5-0.4-0.7l0,0l0,0l0,0v0l0,0l0,0l0,0l0,0l0,0l0,0l0,0l0,0l0,0l0,0
		c0,0,0,0-0.1,0l0,0l0,0l0,0l0,0l0,0l0,0l0,0c0,0,0,0-0.1,0v0c0,0-0.1,0-0.1,0l0,0l0,0l0,0l0,0v-0.5c0-1.5,1.3-3.4,2.8-3.5l2.7-0.1
		l-3.9,10.3l-11.2,0L690,652l2.6,0c1.5,0,2.8,2,2.8,3.5v0.5c-0.4,0.2-0.7,0.5-0.8,0.8l0,0l0,0l0,0l0,0l0,0l0,0l0,0l0,0l0,0l0,0l0,0
		l0,0l0,0l0,0l0,0c0,0.1,0,0.1-0.1,0.2l0,0c0,0.1,0,0.1,0,0.2l0,0c0,0,0,0.1,0,0.1l0,0v0l0,0l0,0l0,0c0,1,0.8,1.8,1.8,1.8l0,0h0l0,0
		l0,0h0l0,0h0l0,0h0l0,0l0,0l0,0l0,0l0,0l0,0l0,0l0,0l0,0l0,0l0,0l0,0l0,0l0,0l0,0l0,0l0,0l0,0l0,0l0,0l0,0l0,0l0,0l0,0l0,0l0,0l0,0
		l0.1,0l0,0c0.8-0.2,1.3-0.9,1.3-1.7c0-0.8-0.5-1.4-1.1-1.7v-2.5h1V652.6L697.8,652.6z M742.9,714.6c8.7-3.5,16.7-9.4,18.5-24
		c-1.7,7.2-5.5,11.2-10.2,13.4c-5,2.4-11.1,2.7-17,2.8C738.2,708.5,740.9,711,742.9,714.6L742.9,714.6z"/>
	<path class="st1" d="M690.3,672.8c-4.1-2.8-5.7,0.5-9.5,1.3c-4,0.8-5.1-2.3-6.8-5.1c2.8,0.6,3,1.9,6.6-0.6
		C684.4,666,689.3,669.1,690.3,672.8L690.3,672.8z"/>
	<path class="st2" d="M691,764.3h1.7v-4.9l0.2-0.8l-0.6,0.7l-1.1,0.8l-0.7-0.9l2.8-2.3h0.9v7.5h1.7v1.4h-5V764.3L691,764.3z
		 M700.1,763.6c0-0.3,0-0.5,0.1-0.8c0.1-0.2,0.2-0.4,0.3-0.6c0.1-0.2,0.3-0.4,0.5-0.5c0.2-0.1,0.4-0.3,0.6-0.4
		c-0.4-0.3-0.7-0.6-1-0.9c-0.2-0.3-0.3-0.8-0.3-1.2c0-0.3,0.1-0.6,0.2-0.9c0.1-0.3,0.3-0.5,0.5-0.7c0.2-0.2,0.5-0.4,0.8-0.5
		c0.3-0.1,0.7-0.2,1.1-0.2c0.4,0,0.7,0,1,0.1c0.3,0.1,0.6,0.2,0.8,0.4c0.2,0.2,0.4,0.4,0.5,0.7c0.1,0.3,0.2,0.5,0.2,0.9
		c0,0.5-0.1,0.9-0.3,1.2c-0.2,0.3-0.5,0.7-1,0.9c0.5,0.3,0.9,0.6,1.1,1c0.3,0.3,0.4,0.8,0.4,1.3c0,0.4-0.1,0.7-0.2,1
		c-0.1,0.3-0.3,0.6-0.6,0.8c-0.2,0.2-0.5,0.4-0.9,0.5c-0.3,0.1-0.7,0.2-1.1,0.2c-0.4,0-0.8-0.1-1.1-0.2c-0.3-0.1-0.6-0.3-0.9-0.5
		c-0.2-0.2-0.4-0.4-0.5-0.7C700.1,764.2,700.1,763.9,700.1,763.6L700.1,763.6z M704.1,763.4c0-0.2,0-0.4-0.1-0.5
		c-0.1-0.2-0.2-0.3-0.4-0.4c-0.1-0.1-0.3-0.2-0.5-0.4c-0.2-0.1-0.4-0.2-0.5-0.3c-0.4,0.2-0.7,0.5-0.8,0.7c-0.1,0.3-0.2,0.5-0.2,0.8
		c0,0.3,0.1,0.6,0.3,0.9c0.2,0.2,0.5,0.4,1,0.4c0.4,0,0.7-0.1,0.9-0.3S704.1,763.8,704.1,763.4L704.1,763.4z M701.8,759.1
		c0,0.2,0,0.4,0.1,0.5c0.1,0.1,0.2,0.3,0.3,0.4c0.1,0.1,0.3,0.2,0.4,0.3c0.2,0.1,0.3,0.2,0.5,0.3c0.5-0.4,0.7-0.9,0.7-1.4
		c0-0.3-0.1-0.6-0.3-0.8c-0.2-0.2-0.4-0.3-0.7-0.3c-0.4,0-0.6,0.1-0.8,0.3C701.9,758.7,701.8,758.9,701.8,759.1L701.8,759.1z
		 M709.3,761.3c0-1.5,0.3-2.7,0.8-3.4c0.5-0.7,1.3-1.1,2.2-1.1c1,0,1.8,0.4,2.3,1.1c0.5,0.7,0.7,1.9,0.7,3.4c0,1.5-0.3,2.7-0.8,3.4
		c-0.5,0.7-1.3,1.1-2.3,1.1c-1,0-1.8-0.4-2.3-1.2C709.6,763.9,709.3,762.8,709.3,761.3L709.3,761.3z M710.9,761.3
		c0,1,0.1,1.8,0.3,2.3c0.2,0.6,0.6,0.8,1.1,0.8c0.5,0,0.8-0.3,1.1-0.8c0.2-0.5,0.3-1.3,0.3-2.4c0-1-0.1-1.8-0.3-2.3
		c-0.2-0.5-0.6-0.8-1.1-0.8c-0.5,0-0.9,0.3-1.1,0.8C711,759.5,710.9,760.3,710.9,761.3L710.9,761.3z M725.2,763.3h-1.4v2.4h-1.5
		v-2.4h-3.8v-0.9l3.9-5.4h1.3v5h1.4V763.3L725.2,763.3z M722.3,760.1l0.1-1h0l-0.4,0.9l-1.3,1.7l-0.6,0.5l0.8-0.1h1.5V760.1
		L722.3,760.1z"/>
</g>
</svg>
